<?xml version="1.0"?>
<svg version="1.1" xmlns="http://www.w3.org/2000/svg" width="400px" height="200px" style="border: dashed 2px #aaa"><path fill="#f7f0f5" d="M19.59,126.235l18.815-25.44l-11.13,0l-1.325,4.77l-5.035,0l0-11.13l28.09,0l0,5.989l-18.444,25.016l12.084,0l1.166-5.3l5.035,0l0,11.66l-29.256,0l0-5.565z M81.99803,119.239l-17.596,0c0.318,4.24,2.756,6.731,6.413,6.731c4.399,0,8.904-2.491,8.904-2.491l2.279,4.399s-5.3,4.452-12.084,4.452c-9.116,0-13.78-5.3-13.78-14.31c0-9.275,5.247-15.37,14.151-15.37c7.897,0,12.031,4.876,12.031,12.455c0,2.014-0.318,3.975-0.318,4.134z M64.50803,114.31l9.593,0c0-3.021-1.272-5.3-4.346-5.3c-2.968,0-4.823,2.173-5.247,5.3z M108.52506,125.016l1.908,4.028c-2.597,1.908-5.565,3.286-9.01,3.286c-6.095,0-7.844-4.24-7.844-10.335l0-12.19l-4.929,0l0-5.141l4.929-0.689l0-7.314l7.95-1.431l0,8.745l7.42,0l0,5.83l-7.42,0l0,11.66c0,3.392,0.583,4.77,2.809,4.77c1.431,0,3.498-0.848,4.187-1.219z M135.31709,125.016l1.908,4.028c-2.597,1.908-5.565,3.286-9.01,3.286c-6.095,0-7.844-4.24-7.844-10.335l0-12.19l-4.929,0l0-5.141l4.929-0.689l0-7.314l7.95-1.431l0,8.745l7.42,0l0,5.83l-7.42,0l0,11.66c0,3.392,0.583,4.77,2.809,4.77c1.431,0,3.498-0.848,4.187-1.219z M169.15812,119.239l-17.596,0c0.318,4.24,2.756,6.731,6.413,6.731c4.399,0,8.904-2.491,8.904-2.491l2.279,4.399s-5.3,4.452-12.084,4.452c-9.116,0-13.78-5.3-13.78-14.31c0-9.275,5.247-15.37,14.151-15.37c7.897,0,12.031,4.876,12.031,12.455c0,2.014-0.318,3.975-0.318,4.134z M151.66812,114.31l9.593,0c0-3.021-1.272-5.3-4.346-5.3c-2.968,0-4.823,2.173-5.247,5.3z M188.31815,126.235l4.77,1.325l0,4.24l-17.013,0l0-4.24l4.24-1.325l0-29.786l-4.24-1.06l0-4.24l12.243-0.424l0,35.51z M213.44121,99.205l0-4.505l16.43-0.265l0,4.77l-3.922,1.537l4.876,15.211l1.696,6.519l1.696-6.254l5.247-15.423l-4.028-1.59l0-4.505l15.847-0.265l0,4.77l-3.869,1.59l-11.183,31.005l-8.48,0l-10.706-31.111z M275.16024,131.8l-0.954-3.445s-4.081,3.975-8.586,3.975c-5.141,0-8.268-3.021-8.268-8.321c0-6.254,4.717-8.745,12.773-8.745l3.71,0l0-2.915c0-2.703-1.431-3.869-4.081-3.869c-2.703,0-4.664,0.795-4.664,0.795l-0.795,3.339l-4.77,0l-0.371-7.844s6.413-2.12,11.501-2.12c8.056,0,11.13,2.809,11.13,10.494l0,13.091l3.975,0.954l0,4.24z M273.83524,119.769l-3.021,0c-4.134,0-5.777,1.06-5.777,3.445c0,2.014,1.113,3.18,3.127,3.18c2.809,0,5.671-3.074,5.671-3.074l0-3.551z M291.56427,107.685l0-4.24l12.19-0.265l0,18.285c0,2.915,0.848,4.24,3.233,4.24c3.445,0,5.989-2.862,5.989-2.862l0-13.833l-4.24-1.325l0-4.24l12.19-0.265l0,23.055l4.24,1.06l0,4.134l-11.183,0.371l-0.53-3.71s-4.24,4.24-9.275,4.24c-5.3,0-8.374-3.551-8.374-9.487l0-13.833z M343.2133,126.235l4.77,1.325l0,4.24l-17.013,0l0-4.24l4.24-1.325l0-29.786l-4.24-1.06l0-4.24l12.243-0.424l0,35.51z M372.60233,125.016l1.908,4.028c-2.597,1.908-5.565,3.286-9.01,3.286c-6.095,0-7.844-4.24-7.844-10.335l0-12.19l-4.929,0l0-5.141l4.929-0.689l0-7.314l7.95-1.431l0,8.745l7.42,0l0,5.83l-7.42,0l0,11.66c0,3.392,0.583,4.77,2.809,4.77c1.431,0,3.498-0.848,4.187-1.219z"/><path fill="#" d=""/></svg>
